# xmcd
#
# Track frame offsets:
#	150
#	24540
#	45842
#	74555
#	102504
#	127367
#	151319
#	177111
#	196739
#	218078
#
# Disc length: 3238 seconds
#
# Revision: 0
# Processed by: cddbd v1.5.1PL0 Copyright (c) Steve Scherf et al.
# Submitted via: dBpowerAMP V4.0
#
DISCID=890ca40a
DTITLE=Quang Le - Chim Sao Ngay Xua
DYEAR=1900
DGENRE=Ethnic
TTITLE0=Yeu Trong Ngich Canh
TTITLE1=Dang Do
TTITLE2=Chim Sao Ngay Xua
TTITLE3=Loi Thu Xua
TTITLE4=Tinh Cha
TTITLE5=Go Cua Trai Tim
TTITLE6=Nang Yeu Hoa Tim
TTITLE7=Ngay Da Dom Bong
TTITLE8=Chuyen Ba Nguoi
TTITLE9=Ngau Hung Ly Qua Cau
EXTD=
EXTT0=
EXTT1=
EXTT2=
EXTT3=
EXTT4=
EXTT5=
EXTT6=
EXTT7=
EXTT8=
EXTT9=
PLAYORDER=
